# xmcd CD database file
#
# Track frame offsets:
#	150
#	19139
#	40375
#	58053
#	80208
#	96290
#	119808
#	146281
#	168771
#	184097
#	207260
#
# Disc length: 3239 seconds
#
# Revision: 2
# Processed by: cddbd v1.5.2PL0 Copyright (c) Steve Scherf et al.
# Submitted via: CDex 1.51
#
DISCID=9d0ca50b
DTITLE=NICK CAVE AND THE BAD SEEDS - DIG LAZARUS DIG!!!
DYEAR=1900
DGENRE=Blues
TTITLE0=Nick Cave And The Bad Seeds - Dig Lazarus Dig!!!
TTITLE1=Nick Cave And The Bad Seeds - Dig Lazarus Dig!!!
TTITLE2=Nick Cave And The Bad Seeds - Dig Lazarus Dig!!!
TTITLE3=Nick Cave And The Bad Seeds - Dig Lazarus Dig!!!
TTITLE4=Nick Cave And The Bad Seeds - Dig Lazarus Dig!!!
TTITLE5=Nick Cave And The Bad Seeds - Dig Lazarus Dig!!!
TTITLE6=Nick Cave And The Bad Seeds - Dig Lazarus Dig!!!
TTITLE7=Nick Cave And The Bad Seeds - Dig Lazarus Dig!!!
TTITLE8=Nick Cave And The Bad Seeds - Dig Lazarus Dig!!!
TTITLE9=Nick Cave And The Bad Seeds - Dig Lazarus Dig!!!
TTITLE10=Nick Cave And The Bad Seeds - Dig Lazarus Dig!!!
EXTD=
EXTT0=
EXTT1=
EXTT2=
EXTT3=
EXTT4=
EXTT5=
EXTT6=
EXTT7=
EXTT8=
EXTT9=
EXTT10=
PLAYORDER=
